<?xml version="1.0" encoding="UTF-8" standalone="no"?>
<!-- Created with Inkscape (http://www.inkscape.org/) -->

<svg
   width="793.70074"
   height="146.63586"
   viewBox="0 0 209.99998 38.797407"
   version="1.1"
   id="svg361"
   inkscape:version="1.1.1 (c3084ef, 2021-09-22)"
   sodipodi:docname="voomcar_logo.svg"
   xmlns:inkscape="http://www.inkscape.org/namespaces/inkscape"
   xmlns:sodipodi="http://sodipodi.sourceforge.net/DTD/sodipodi-0.dtd"
   xmlns="http://www.w3.org/2000/svg"
   xmlns:svg="http://www.w3.org/2000/svg"
   xmlns:rdf="http://www.w3.org/1999/02/22-rdf-syntax-ns#"
   xmlns:cc="http://creativecommons.org/ns#"
   xmlns:dc="http://purl.org/dc/elements/1.1/">
  <defs
     id="defs356">
    <clipPath
       clipPathUnits="userSpaceOnUse"
       id="clipPath77">
      <path
         d="M 136,246 H 701 V 361 H 136 Z"
         id="path75" />
    </clipPath>
    <clipPath
       clipPathUnits="userSpaceOnUse"
       id="clipPath81">
      <path
         d="M 0,595.276 H 841.89 V 0 H 0"
         id="path79" />
    </clipPath>
    <clipPath
       clipPathUnits="userSpaceOnUse"
       id="clipPath85">
      <path
         d="M 0,0 H 841.89 V 595.276 H 0 Z"
         id="path83" />
    </clipPath>
  </defs>
  <sodipodi:namedview
     id="base"
     pagecolor="#ffffff"
     bordercolor="#666666"
     borderopacity="1.0"
     inkscape:pageopacity="0.0"
     inkscape:pageshadow="2"
     inkscape:zoom="0.35"
     inkscape:cx="91.428571"
     inkscape:cy="102.85714"
     inkscape:document-units="px"
     inkscape:pagecheckerboard="0"
     showgrid="false"
     inkscape:window-width="1920"
     inkscape:window-height="1080"
     inkscape:window-x="0"
     inkscape:window-y="0"
     inkscape:window-maximized="0"
     inkscape:current-layer="svg361"
     units="px"
     fit-margin-top="0"
     fit-margin-left="0"
     fit-margin-right="0"
     fit-margin-bottom="0" />
  <metadata
     id="metadata359">
    <rdf:RDF>
      <cc:Work
         rdf:about="">
        <dc:format>image/svg+xml</dc:format>
        <dc:type
           rdf:resource="http://purl.org/dc/dcmitype/StillImage" />
      </cc:Work>
    </rdf:RDF>
  </metadata>
  <g
     id="g67"
     inkscape:label="voomcar logo"
     transform="matrix(0.37265528,0,0,-0.37265528,-50.904935,130.67531)">
    <g
       id="g69" />
    <g
       id="g71">
      <g
         id="g73" />
      <g
         id="g111">
        <g
           clip-path="url(#clipPath77)"
           id="g109">
          <g
             id="g87" />
          <g
             id="g107">
            <g
               clip-path="url(#clipPath81)"
               id="g105">
              <g
                 clip-path="url(#clipPath85)"
                 id="g103">
                <path
                   d="m 574.2601,310.6901 c 2.96,-1.026 4.084,-3.231 3.373,-6.614 l -0.058,-0.285 c -0.486,-2.319 -1.779,-4.161 -3.877,-5.53 -1.46,-0.912 -2.866,-1.368 -4.215,-1.368 -0.712,0 -1.424,0.113 -2.135,0.342 -1.725,0.608 -3.561,0.912 -5.508,0.912 -5.171,0 -9.948,-1.844 -14.332,-5.531 -4.384,-3.686 -7.119,-8.152 -8.205,-13.397 -1.087,-5.208 -0.226,-9.655 2.585,-13.341 2.848,-3.688 6.856,-5.531 12.027,-5.531 1.948,0 3.915,0.304 5.901,0.912 0.75,0.228 1.48,0.343 2.192,0.343 1.386,0 2.622,-0.456 3.71,-1.369 1.535,-1.368 2.06,-3.23 1.573,-5.586 -0.712,-3.346 -2.754,-5.551 -6.126,-6.615 -3.372,-0.988 -6.744,-1.482 -10.116,-1.482 -8.918,0 -15.868,3.212 -20.852,9.636 -4.983,6.422 -6.538,14.158 -4.664,23.204 1.911,9.046 6.706,16.78 14.388,23.204 7.68,6.424 15.98,9.635 24.897,9.635 3.373,0 6.519,-0.513 9.442,-1.539"
                   style="fill:#44c8f5;fill-opacity:1;fill-rule:nonzero;stroke:none"
                   id="path89" />
                <path
                   d="m 602.9906,292.7307 c -4.347,-3.687 -7.082,-8.134 -8.206,-13.341 -1.087,-5.245 -0.225,-9.712 2.586,-13.397 2.884,-3.65 6.912,-5.474 12.082,-5.474 5.172,0 9.93,1.824 14.275,5.474 4.421,3.685 7.176,8.152 8.263,13.397 1.124,5.207 0.242,9.654 -2.642,13.341 -2.848,3.687 -6.838,5.531 -11.97,5.531 -5.171,0 -9.968,-1.844 -14.388,-5.531 m 38.161,9.863 c 4.982,-6.424 6.52,-14.158 4.609,-23.204 l -5.396,-25.94 c -0.413,-1.939 -1.425,-3.555 -3.035,-4.847 -1.65,-1.368 -3.392,-2.053 -5.227,-2.053 h -0.169 c -1.836,0 -3.278,0.685 -4.327,2.053 -1.088,1.292 -1.425,2.908 -1.012,4.847 -5.246,-4.6 -11.934,-6.9 -20.064,-6.9 -8.918,0 -15.868,3.212 -20.851,9.636 -4.984,6.423 -6.539,14.158 -4.665,23.204 1.912,9.046 6.707,16.78 14.388,23.204 7.681,6.424 15.98,9.636 24.898,9.636 8.917,0 15.867,-3.212 20.851,-9.636"
                   style="fill:#44c8f5;fill-opacity:1;fill-rule:nonzero;stroke:none"
                   id="path91" />
                <path
                   d="m 694.6107,312.2292 c 1.873,0 3.334,-0.684 4.384,-2.052 1.049,-1.368 1.367,-3.003 0.955,-4.904 v -0.114 c -0.413,-1.901 -1.424,-3.516 -3.034,-4.846 -1.613,-1.368 -3.355,-2.052 -5.228,-2.052 h -3.203 c -3.072,0 -5.901,-1.083 -8.486,-3.249 -2.549,-2.167 -4.178,-4.809 -4.89,-7.925 l -7.025,-33.638 c -0.413,-1.938 -1.424,-3.554 -3.035,-4.846 -1.65,-1.369 -3.391,-2.053 -5.227,-2.053 h -0.169 c -1.836,0 -3.278,0.684 -4.327,2.053 -1.087,1.292 -1.424,2.908 -1.012,4.846 l 7.026,33.638 c 1.536,6.955 5.189,12.885 10.959,17.788 5.882,4.903 12.252,7.354 19.109,7.354 0,0 3.203,0 3.203,0 z"
                   style="fill:#44c8f5;fill-opacity:1;fill-rule:nonzero;stroke:none"
                   id="path93" />
                <path
                   d="m 168.9076,266.3908 18.554,43.252 c 1.248,2.887 3.432,4.331 6.554,4.331 h 0.118 c 2.536,0 4.506,-1.074 5.912,-3.219 0.819,-1.21 1.228,-2.478 1.228,-3.804 0,-0.936 -0.215,-1.893 -0.643,-2.868 l -21.714,-50.744 c -1.795,-4.526 -5.113,-6.789 -9.95,-6.789 -4.916,0 -8.252,2.263 -10.008,6.789 l -21.773,50.744 c -0.389,0.975 -0.585,1.912 -0.585,2.809 0,1.327 0.411,2.614 1.23,3.863 1.404,2.145 3.374,3.219 5.911,3.219 h 0.175 c 3.121,0 5.287,-1.444 6.497,-4.331 9.325,-21.812 14.71,-34.376 16.153,-37.691 0,-0.157 0.78,-2.011 2.341,-5.561"
                   style="fill:#1b75bc;fill-opacity:1;fill-rule:nonzero;stroke:none"
                   id="path95" />
                <path
                   d="m 433.0443,253.632 c 0,-1.989 -0.702,-3.648 -2.106,-4.975 -1.406,-1.405 -3.064,-2.107 -4.976,-2.107 h -0.176 c -1.912,0 -3.569,0.702 -4.974,2.107 -1.405,1.327 -2.107,2.986 -2.107,4.975 v 32.189 c 0,7.727 2.75,14.36 8.252,19.901 5.501,5.502 12.135,8.252 19.9,8.252 9.286,0 16.29,-3.083 21.011,-9.248 4.682,6.165 11.666,9.248 20.952,9.248 7.765,0 14.398,-2.75 19.9,-8.252 5.502,-5.541 8.253,-12.174 8.253,-19.901 v -32.189 c 0,-1.951 -0.684,-3.609 -2.049,-4.975 -1.404,-1.405 -3.083,-2.107 -5.033,-2.107 h -0.118 c -1.99,0 -3.648,0.702 -4.974,2.107 -1.404,1.327 -2.108,2.986 -2.108,4.975 v 32.189 c 0,3.825 -1.345,7.083 -4.038,9.776 -2.692,2.691 -5.969,4.038 -9.833,4.038 -3.824,0 -7.081,-1.347 -9.773,-4.038 -2.692,-2.693 -4.038,-5.951 -4.038,-9.776 v -32.189 c 0,-1.989 -0.703,-3.648 -2.108,-4.975 -1.327,-1.405 -2.985,-2.107 -4.974,-2.107 h -0.117 c -1.953,0 -3.629,0.702 -5.034,2.107 -1.405,1.327 -2.107,2.986 -2.107,4.975 v 32.189 c 0,3.825 -1.346,7.083 -4.038,9.776 -2.692,2.691 -5.951,4.038 -9.774,4.038 -3.825,0 -7.083,-1.347 -9.775,-4.038 -2.691,-2.693 -4.038,-5.951 -4.038,-9.776 0,0 0,-32.189 0,-32.189 z"
                   style="fill:#1b75bc;fill-opacity:1;fill-rule:nonzero;stroke:none"
                   id="path97" />
                <path
                   d="m 379.3939,261.4357 c -10.207,0.008 -18.755,8.557 -18.764,18.763 -0.007,10.381 8.41,18.797 18.79,18.79 10.208,-0.007 18.757,-8.555 18.764,-18.763 0.007,-10.381 -8.41,-18.798 -18.79,-18.79 m 1.476,52.407 h -0.006 c -0.104,0 -0.205,0.004 -0.307,0.012 h -0.003 c -0.863,0.066 -1.647,0.408 -2.268,0.937 -0.15,0.127 -0.288,0.265 -0.418,0.412 -9.628,9.458 -32.667,28.068 -69.737,34.227 -50.308,8.358 -88.208,-28.63 -88.473,-28.89 75.162,40.092 119.167,4.112 132.859,-10.547 2.349,-2.515 2.475,-6.354 0.356,-9.064 -4.539,-5.805 -7.214,-13.137 -7.126,-21.097 0.203,-18.456 15.367,-33.37 33.823,-33.283 18.516,0.088 33.5,15.126 33.5,33.663 0,18.101 -14.287,32.866 -32.2,33.63"
                   style="fill:#1b75bc;fill-opacity:1;fill-rule:nonzero;stroke:none"
                   id="path99" />
                <path
                   d="m 234.9496,261.4357 c -10.38,-0.007 -18.797,8.409 -18.79,18.79 0.008,10.207 8.557,18.756 18.764,18.764 10.38,0.007 18.797,-8.409 18.79,-18.79 -0.007,-10.207 -8.557,-18.756 -18.764,-18.764 m 126.148,5.295 c 0,0 -28.291,27.48 -78.197,23.332 -8.054,-0.669 -15.824,3.036 -20.505,9.624 -6.098,8.585 -16.122,14.187 -27.455,14.188 -18.577,0.003 -33.667,-15.085 -33.667,-33.663 0,-18.59 15.072,-33.662 33.663,-33.662 9.521,0 18.117,3.954 24.241,10.309 6.602,6.852 14.952,11.775 24.201,14.013 18.115,4.382 44.522,6.179 77.719,-4.141"
                   style="fill:#1b75bc;fill-opacity:1;fill-rule:nonzero;stroke:none"
                   id="path101" />
              </g>
            </g>
          </g>
        </g>
      </g>
    </g>
  </g>
</svg>
